<mxfile host="app.diagrams.net" agent="Mozilla/5.0 (Windows NT 10.0; Win64; x64) AppleWebKit/537.36 (KHTML, like Gecko) Chrome/129.0.0.0 Safari/537.36" version="24.7.17">
  <diagram name="Page-1" id="HIbboXZ_vp0SEyaZXY4H">
    <mxGraphModel dx="1221" dy="618" grid="1" gridSize="10" guides="1" tooltips="1" connect="1" arrows="1" fold="1" page="1" pageScale="1" pageWidth="827" pageHeight="1169" math="0" shadow="0">
      <root>
        <mxCell id="0" />
        <mxCell id="1" parent="0" />
        <mxCell id="vxcRZHvHTZG35xcLbioa-1" value="memasukan library kontrol servo" style="rounded=1;whiteSpace=wrap;html=1;" vertex="1" parent="1">
          <mxGeometry x="340" y="20" width="120" height="60" as="geometry" />
        </mxCell>
        <mxCell id="vxcRZHvHTZG35xcLbioa-2" value="" style="endArrow=classic;html=1;rounded=0;" edge="1" parent="1">
          <mxGeometry width="50" height="50" relative="1" as="geometry">
            <mxPoint x="390" y="80" as="sourcePoint" />
            <mxPoint x="390" y="120" as="targetPoint" />
          </mxGeometry>
        </mxCell>
        <mxCell id="vxcRZHvHTZG35xcLbioa-3" value="deklarasi variabel" style="rounded=1;whiteSpace=wrap;html=1;" vertex="1" parent="1">
          <mxGeometry x="340" y="120" width="120" height="60" as="geometry" />
        </mxCell>
        <mxCell id="vxcRZHvHTZG35xcLbioa-4" value="" style="endArrow=classic;html=1;rounded=0;" edge="1" parent="1">
          <mxGeometry width="50" height="50" relative="1" as="geometry">
            <mxPoint x="390" y="180" as="sourcePoint" />
            <mxPoint x="390" y="220" as="targetPoint" />
          </mxGeometry>
        </mxCell>
        <mxCell id="vxcRZHvHTZG35xcLbioa-5" value="membuat objek servo" style="rounded=1;whiteSpace=wrap;html=1;" vertex="1" parent="1">
          <mxGeometry x="340" y="220" width="120" height="60" as="geometry" />
        </mxCell>
        <mxCell id="vxcRZHvHTZG35xcLbioa-6" value="" style="endArrow=classic;html=1;rounded=0;" edge="1" parent="1">
          <mxGeometry width="50" height="50" relative="1" as="geometry">
            <mxPoint x="390" y="280" as="sourcePoint" />
            <mxPoint x="390" y="320" as="targetPoint" />
            <Array as="points">
              <mxPoint x="390" y="290" />
            </Array>
          </mxGeometry>
        </mxCell>
        <mxCell id="vxcRZHvHTZG35xcLbioa-7" value="menghubungkan objek servo ke pin" style="rounded=1;whiteSpace=wrap;html=1;" vertex="1" parent="1">
          <mxGeometry x="340" y="320" width="120" height="60" as="geometry" />
        </mxCell>
        <mxCell id="vxcRZHvHTZG35xcLbioa-8" value="" style="endArrow=classic;html=1;rounded=0;" edge="1" parent="1">
          <mxGeometry width="50" height="50" relative="1" as="geometry">
            <mxPoint x="390" y="380" as="sourcePoint" />
            <mxPoint x="390" y="420" as="targetPoint" />
            <Array as="points">
              <mxPoint x="390" y="390" />
            </Array>
          </mxGeometry>
        </mxCell>
        <mxCell id="vxcRZHvHTZG35xcLbioa-9" value="baca nilai analog dari potensiometer" style="rounded=1;whiteSpace=wrap;html=1;" vertex="1" parent="1">
          <mxGeometry x="340" y="420" width="120" height="60" as="geometry" />
        </mxCell>
        <mxCell id="vxcRZHvHTZG35xcLbioa-14" value="" style="endArrow=classic;html=1;rounded=0;" edge="1" parent="1">
          <mxGeometry width="50" height="50" relative="1" as="geometry">
            <mxPoint x="390" y="480" as="sourcePoint" />
            <mxPoint x="390" y="520" as="targetPoint" />
            <Array as="points">
              <mxPoint x="390" y="490" />
            </Array>
          </mxGeometry>
        </mxCell>
        <mxCell id="vxcRZHvHTZG35xcLbioa-15" value="delay 100 mili detik" style="rounded=1;whiteSpace=wrap;html=1;" vertex="1" parent="1">
          <mxGeometry x="340" y="750" width="120" height="60" as="geometry" />
        </mxCell>
        <mxCell id="vxcRZHvHTZG35xcLbioa-16" value="buat nilai map servo dengan mengambil data dari resistansi potensiometer" style="rounded=1;whiteSpace=wrap;html=1;" vertex="1" parent="1">
          <mxGeometry x="340" y="524.5" width="120" height="60" as="geometry" />
        </mxCell>
        <mxCell id="vxcRZHvHTZG35xcLbioa-17" value="" style="endArrow=classic;html=1;rounded=0;" edge="1" parent="1">
          <mxGeometry width="50" height="50" relative="1" as="geometry">
            <mxPoint x="390" y="585" as="sourcePoint" />
            <mxPoint x="390" y="635" as="targetPoint" />
          </mxGeometry>
        </mxCell>
        <mxCell id="vxcRZHvHTZG35xcLbioa-18" value="menggerakkan servo menggunakan data dari map" style="rounded=1;whiteSpace=wrap;html=1;" vertex="1" parent="1">
          <mxGeometry x="340" y="640" width="120" height="60" as="geometry" />
        </mxCell>
        <mxCell id="vxcRZHvHTZG35xcLbioa-19" value="" style="endArrow=classic;html=1;rounded=0;" edge="1" parent="1">
          <mxGeometry width="50" height="50" relative="1" as="geometry">
            <mxPoint x="390" y="700" as="sourcePoint" />
            <mxPoint x="390" y="750" as="targetPoint" />
          </mxGeometry>
        </mxCell>
      </root>
    </mxGraphModel>
  </diagram>
</mxfile>
